<svg width="16" height="16" viewBox="0 0 16 16" fill="none" xmlns="http://www.w3.org/2000/svg">
<g clip-path="url(#clip0_16_158)">
<path d="M6 2H3.33333C2.97971 2 2.64057 2.14048 2.39052 2.39052C2.14048 2.64057 2 2.97971 2 3.33333V6C2 6.35362 2.14048 6.69276 2.39052 6.94281C2.64057 7.19286 2.97971 7.33333 3.33333 7.33333H6C6.35362 7.33333 6.69276 7.19286 6.94281 6.94281C7.19286 6.69276 7.33333 6.35362 7.33333 6V3.33333C7.33333 2.97971 7.19286 2.64057 6.94281 2.39052C6.69276 2.14048 6.35362 2 6 2ZM3.33333 6V3.33333H6V6H3.33333Z" fill="#343333"/>
<path d="M12.6667 2H10C9.64638 2 9.30724 2.14048 9.05719 2.39052C8.80714 2.64057 8.66667 2.97971 8.66667 3.33333V6C8.66667 6.35362 8.80714 6.69276 9.05719 6.94281C9.30724 7.19286 9.64638 7.33333 10 7.33333H12.6667C13.0203 7.33333 13.3594 7.19286 13.6095 6.94281C13.8595 6.69276 14 6.35362 14 6V3.33333C14 2.97971 13.8595 2.64057 13.6095 2.39052C13.3594 2.14048 13.0203 2 12.6667 2ZM10 6V3.33333H12.6667V6H10Z" fill="#343333"/>
<path d="M6 8.66666H3.33333C2.97971 8.66666 2.64057 8.80713 2.39052 9.05718C2.14048 9.30723 2 9.64637 2 9.99999V12.6667C2 13.0203 2.14048 13.3594 2.39052 13.6095C2.64057 13.8595 2.97971 14 3.33333 14H6C6.35362 14 6.69276 13.8595 6.94281 13.6095C7.19286 13.3594 7.33333 13.0203 7.33333 12.6667V9.99999C7.33333 9.64637 7.19286 9.30723 6.94281 9.05718C6.69276 8.80713 6.35362 8.66666 6 8.66666ZM3.33333 12.6667V9.99999H6V12.6667H3.33333Z" fill="#343333"/>
<path d="M12.6667 8.66666H10C9.64638 8.66666 9.30724 8.80713 9.05719 9.05718C8.80714 9.30723 8.66667 9.64637 8.66667 9.99999V12.6667C8.66667 13.0203 8.80714 13.3594 9.05719 13.6095C9.30724 13.8595 9.64638 14 10 14H12.6667C13.0203 14 13.3594 13.8595 13.6095 13.6095C13.8595 13.3594 14 13.0203 14 12.6667V9.99999C14 9.64637 13.8595 9.30723 13.6095 9.05718C13.3594 8.80713 13.0203 8.66666 12.6667 8.66666ZM10 12.6667V9.99999H12.6667V12.6667H10Z" fill="#343333"/>
</g>
<defs>
<clipPath id="clip0_16_158">
<rect width="16" height="16" fill="white"/>
</clipPath>
</defs>
</svg>
