<svg xmlns="http://www.w3.org/2000/svg" xmlns:xlink="http://www.w3.org/1999/xlink" version="1.1" width="256" height="256" viewBox="0 0 256 256" xml:space="preserve">
<g style="stroke: none; stroke-width: 0; stroke-dasharray: none; stroke-linecap: butt; stroke-linejoin: miter; stroke-miterlimit: 10; fill: none; fill-rule: nonzero; opacity: 1;" transform="translate(1.4065934065934016 1.4065934065934016) scale(2.81 2.81)">
	<path d="M 38.398 54.032 h 13.204 c 0.873 -9.513 7.173 -17.627 16.096 -21.798 c 0.009 -0.308 0.02 -0.616 0.02 -0.926 C 67.718 16.356 57.547 1 45 1 S 22.282 16.356 22.282 31.308 c 0 0.311 0.011 0.618 0.02 0.926 C 31.225 36.405 37.525 44.519 38.398 54.032 z" style="stroke: none; stroke-width: 1; stroke-dasharray: none; stroke-linecap: butt; stroke-linejoin: miter; stroke-miterlimit: 10; fill: rgb(164,180,183); fill-rule: nonzero; opacity: 1;" transform=" matrix(1 0 0 1 0 0) " stroke-linecap="round"/>
	<path d="M 45 23.866 c -4.829 0 -9.428 0.931 -13.613 2.609 l 1.802 5.868 c 1.339 4.358 4.322 8.025 8.317 10.222 l 0.656 0.361 c 1.767 0.972 3.909 0.972 5.676 0 l 0.656 -0.361 c 3.995 -2.197 6.978 -5.863 8.317 -10.222 l 1.802 -5.868 C 54.428 24.797 49.829 23.866 45 23.866 z" style="stroke: none; stroke-width: 1; stroke-dasharray: none; stroke-linecap: butt; stroke-linejoin: miter; stroke-miterlimit: 10; fill: rgb(255,210,189); fill-rule: nonzero; opacity: 1;" transform=" matrix(1 0 0 1 0 0) " stroke-linecap="round"/>
	<path d="M 69.522 89 H 20.478 V 60.62 c 0 -3.638 2.949 -6.587 6.587 -6.587 h 35.87 c 3.638 0 6.587 2.949 6.587 6.587 V 89 z" style="stroke: none; stroke-width: 1; stroke-dasharray: none; stroke-linecap: butt; stroke-linejoin: miter; stroke-miterlimit: 10; fill: rgb(221,234,237); fill-rule: nonzero; opacity: 1;" transform=" matrix(1 0 0 1 0 0) " stroke-linecap="round"/>
	<path d="M 45 23.866 c 8.663 0 16.588 2.989 22.707 7.932 c 0.004 -0.163 0.01 -0.325 0.01 -0.489 C 67.718 16.356 57.547 1 45 1 C 32.453 1 22.282 16.356 22.282 31.308 c 0 0.164 0.006 0.327 0.01 0.489 C 28.412 26.855 36.337 23.866 45 23.866 z" style="stroke: none; stroke-width: 1; stroke-dasharray: none; stroke-linecap: butt; stroke-linejoin: miter; stroke-miterlimit: 10; fill: rgb(131,145,148); fill-rule: nonzero; opacity: 1;" transform=" matrix(1 0 0 1 0 0) " stroke-linecap="round"/>
	<path d="M 50.512 79.69 v -3.501 c 2.098 -1.687 3.41 -4.311 3.287 -7.24 c -0.19 -4.544 -3.993 -8.296 -8.539 -8.427 c -4.983 -0.144 -9.068 3.853 -9.068 8.804 c 0 2.777 1.288 5.249 3.295 6.864 v 3.501 c 0 1.267 1.027 2.293 2.293 2.293 h 6.438 C 49.485 81.984 50.512 80.957 50.512 79.69 z" style="stroke: none; stroke-width: 1; stroke-dasharray: none; stroke-linecap: butt; stroke-linejoin: miter; stroke-miterlimit: 10; fill: rgb(251,86,86); fill-rule: nonzero; opacity: 1;" transform=" matrix(1 0 0 1 0 0) " stroke-linecap="round"/>
	<path d="M 20.478 60.62 c 0 -3.638 2.949 -6.587 6.587 -6.587 h 11.338 c -0.453 -4.923 -2.362 -9.468 -5.335 -13.289 C 20.55 45.384 12.996 54.774 10.723 73.146 c 2.4 3.096 5.747 5.827 9.755 8.036 V 60.62 z" style="stroke: none; stroke-width: 1; stroke-dasharray: none; stroke-linecap: butt; stroke-linejoin: miter; stroke-miterlimit: 10; fill: rgb(131,145,148); fill-rule: nonzero; opacity: 1;" transform=" matrix(1 0 0 1 0 0) " stroke-linecap="round"/>
	<path d="M 56.931 40.743 c -2.973 3.821 -4.882 8.367 -5.335 13.289 h 11.338 c 3.638 0 6.587 2.949 6.587 6.587 v 20.562 c 4.008 -2.21 7.355 -4.94 9.755 -8.036 C 77.005 54.774 69.45 45.384 56.931 40.743 z" style="stroke: none; stroke-width: 1; stroke-dasharray: none; stroke-linecap: butt; stroke-linejoin: miter; stroke-miterlimit: 10; fill: rgb(131,145,148); fill-rule: nonzero; opacity: 1;" transform=" matrix(1 0 0 1 0 0) " stroke-linecap="round"/>
	<path d="M 22.292 32.797 c -0.143 0 -0.286 -0.03 -0.42 -0.093 c -0.346 -0.16 -0.57 -0.502 -0.579 -0.883 l -0.004 -0.131 c -0.003 -0.127 -0.007 -0.254 -0.007 -0.382 C 21.282 16.529 31.425 0 45 0 c 13.574 0 23.718 16.529 23.718 31.308 c 0 0.151 -0.005 0.301 -0.009 0.451 c -0.012 0.38 -0.238 0.754 -0.584 0.913 c -0.344 0.158 -0.751 0.143 -1.046 -0.096 C 60.924 27.604 53.083 24.866 45 24.866 c -8.083 0 -15.923 2.738 -22.079 7.709 C 22.74 32.722 22.517 32.797 22.292 32.797 z M 45 22.866 c 7.83 0 15.449 2.435 21.68 6.894 C 66.023 16.345 56.968 2 45 2 S 23.977 16.345 23.32 29.76 C 29.551 25.301 37.17 22.866 45 22.866 z" style="stroke: none; stroke-width: 1; stroke-dasharray: none; stroke-linecap: butt; stroke-linejoin: miter; stroke-miterlimit: 10; fill: rgb(0,0,0); fill-rule: nonzero; opacity: 1;" transform=" matrix(1 0 0 1 0 0) " stroke-linecap="round"/>
	<path d="M 45 44.659 c -1.14 0 -2.28 -0.286 -3.32 -0.857 l -0.656 -0.361 c -4.246 -2.335 -7.368 -6.172 -8.791 -10.804 l -1.802 -5.868 c -0.152 -0.497 0.101 -1.028 0.584 -1.222 c 4.436 -1.779 9.141 -2.681 13.985 -2.681 s 9.549 0.902 13.985 2.681 c 0.482 0.193 0.736 0.725 0.584 1.222 l -1.803 5.868 c -1.423 4.632 -4.545 8.469 -8.791 10.805 l -0.656 0.361 C 47.28 44.373 46.141 44.659 45 44.659 z M 32.617 27.072 l 1.529 4.978 c 1.27 4.132 4.055 7.556 7.843 9.639 l 0.656 0.361 c 1.475 0.811 3.237 0.811 4.711 0 l 0.657 -0.361 c 3.787 -2.083 6.572 -5.506 7.842 -9.639 l 1.529 -4.978 c -3.946 -1.464 -8.107 -2.206 -12.384 -2.206 S 36.562 25.607 32.617 27.072 z" style="stroke: none; stroke-width: 1; stroke-dasharray: none; stroke-linecap: butt; stroke-linejoin: miter; stroke-miterlimit: 10; fill: rgb(0,0,0); fill-rule: nonzero; opacity: 1;" transform=" matrix(1 0 0 1 0 0) " stroke-linecap="round"/>
	<path d="M 69.522 90 H 20.478 c -0.552 0 -1 -0.447 -1 -1 V 60.619 c 0 -4.184 3.404 -7.587 7.588 -7.587 h 35.869 c 4.184 0 7.588 3.403 7.588 7.587 V 89 C 70.522 89.553 70.075 90 69.522 90 z M 21.478 88 h 47.045 V 60.619 c 0 -3.081 -2.507 -5.587 -5.588 -5.587 H 27.065 c -3.081 0 -5.588 2.506 -5.588 5.587 V 88 z" style="stroke: none; stroke-width: 1; stroke-dasharray: none; stroke-linecap: butt; stroke-linejoin: miter; stroke-miterlimit: 10; fill: rgb(0,0,0); fill-rule: nonzero; opacity: 1;" transform=" matrix(1 0 0 1 0 0) " stroke-linecap="round"/>
	<circle cx="41.893" cy="69.133" r="2.073" style="stroke: none; stroke-width: 1; stroke-dasharray: none; stroke-linecap: butt; stroke-linejoin: miter; stroke-miterlimit: 10; fill: rgb(0,0,0); fill-rule: nonzero; opacity: 1;" transform="  matrix(1 0 0 1 0 0) "/>
	<circle cx="48.103" cy="69.133" r="2.073" style="stroke: none; stroke-width: 1; stroke-dasharray: none; stroke-linecap: butt; stroke-linejoin: miter; stroke-miterlimit: 10; fill: rgb(0,0,0); fill-rule: nonzero; opacity: 1;" transform="  matrix(1 0 0 1 0 0) "/>
	<path d="M 48.219 82.983 h -6.438 c -1.816 0 -3.293 -1.478 -3.293 -3.293 v -3.038 c -2.101 -1.864 -3.295 -4.508 -3.295 -7.327 c 0 -2.673 1.056 -5.171 2.974 -7.034 c 1.917 -1.863 4.441 -2.823 7.123 -2.77 c 5.033 0.146 9.299 4.355 9.51 9.386 c 0.124 2.984 -1.068 5.779 -3.286 7.745 v 3.038 C 51.513 81.506 50.035 82.983 48.219 82.983 z M 44.999 61.518 c -2.045 0 -3.968 0.779 -5.438 2.208 c -1.527 1.483 -2.368 3.472 -2.368 5.6 c 0 2.373 1.065 4.591 2.922 6.084 c 0.236 0.189 0.374 0.477 0.374 0.779 v 3.502 c 0 0.713 0.58 1.293 1.293 1.293 h 6.438 c 0.714 0 1.294 -0.58 1.294 -1.293 v -3.502 c 0 -0.303 0.138 -0.59 0.373 -0.779 c 1.957 -1.573 3.02 -3.913 2.915 -6.418 c -0.168 -4.004 -3.563 -7.354 -7.569 -7.47 C 45.154 61.519 45.076 61.518 44.999 61.518 z" style="stroke: none; stroke-width: 1; stroke-dasharray: none; stroke-linecap: butt; stroke-linejoin: miter; stroke-miterlimit: 10; fill: rgb(0,0,0); fill-rule: nonzero; opacity: 1;" transform=" matrix(1 0 0 1 0 0) " stroke-linecap="round"/>
	<path d="M 45 75.551 c -0.552 0 -1 -0.447 -1 -1 V 73.75 c 0 -0.553 0.448 -1 1 -1 s 1 0.447 1 1 v 0.801 C 46 75.104 45.552 75.551 45 75.551 z" style="stroke: none; stroke-width: 1; stroke-dasharray: none; stroke-linecap: butt; stroke-linejoin: miter; stroke-miterlimit: 10; fill: rgb(0,0,0); fill-rule: nonzero; opacity: 1;" transform=" matrix(1 0 0 1 0 0) " stroke-linecap="round"/>
	<path d="M 45 82.983 c -0.552 0 -1 -0.447 -1 -1 v -3.729 c 0 -0.553 0.448 -1 1 -1 s 1 0.447 1 1 v 3.729 C 46 82.536 45.552 82.983 45 82.983 z" style="stroke: none; stroke-width: 1; stroke-dasharray: none; stroke-linecap: butt; stroke-linejoin: miter; stroke-miterlimit: 10; fill: rgb(0,0,0); fill-rule: nonzero; opacity: 1;" transform=" matrix(1 0 0 1 0 0) " stroke-linecap="round"/>
	<path d="M 73.595 90 H 16.406 c -0.552 0 -1 -0.447 -1 -1 s 0.448 -1 1 -1 h 57.189 c 0.553 0 1 0.447 1 1 S 74.147 90 73.595 90 z" style="stroke: none; stroke-width: 1; stroke-dasharray: none; stroke-linecap: butt; stroke-linejoin: miter; stroke-miterlimit: 10; fill: rgb(0,0,0); fill-rule: nonzero; opacity: 1;" transform=" matrix(1 0 0 1 0 0) " stroke-linecap="round"/>
	<path d="M 20.478 82.182 c -0.166 0 -0.333 -0.041 -0.483 -0.124 c -4.203 -2.317 -7.588 -5.109 -10.062 -8.3 c -0.162 -0.208 -0.235 -0.473 -0.203 -0.735 c 2.215 -17.898 9.305 -28.144 22.991 -33.217 c 0.409 -0.152 0.869 -0.021 1.137 0.323 c 3.169 4.072 5.085 8.848 5.541 13.812 c 0.026 0.28 -0.067 0.558 -0.257 0.766 s -0.458 0.326 -0.739 0.326 H 27.065 c -3.081 0 -5.588 2.506 -5.588 5.587 v 20.563 c 0 0.354 -0.187 0.681 -0.491 0.861 C 20.83 82.135 20.653 82.182 20.478 82.182 z M 11.768 72.854 c 1.956 2.43 4.594 4.683 7.71 6.59 V 60.619 c 0 -4.184 3.404 -7.587 7.588 -7.587 h 10.216 c -0.552 -3.956 -2.113 -7.756 -4.558 -11.088 C 20.382 46.776 13.896 56.353 11.768 72.854 z" style="stroke: none; stroke-width: 1; stroke-dasharray: none; stroke-linecap: butt; stroke-linejoin: miter; stroke-miterlimit: 10; fill: rgb(0,0,0); fill-rule: nonzero; opacity: 1;" transform=" matrix(1 0 0 1 0 0) " stroke-linecap="round"/>
	<path d="M 69.522 82.182 c -0.176 0 -0.352 -0.047 -0.509 -0.139 c -0.305 -0.181 -0.491 -0.508 -0.491 -0.861 V 60.619 c 0 -3.081 -2.507 -5.587 -5.588 -5.587 H 51.597 c -0.281 0 -0.55 -0.118 -0.739 -0.326 s -0.282 -0.485 -0.257 -0.766 c 0.457 -4.965 2.374 -9.741 5.542 -13.812 c 0.269 -0.345 0.729 -0.475 1.137 -0.323 c 13.686 5.074 20.776 15.319 22.99 33.217 c 0.032 0.263 -0.04 0.527 -0.202 0.735 c -2.474 3.19 -5.859 5.982 -10.063 8.3 C 69.854 82.141 69.688 82.182 69.522 82.182 z M 52.719 53.032 h 10.216 c 4.184 0 7.588 3.403 7.588 7.587 v 18.825 c 3.115 -1.907 5.754 -4.16 7.71 -6.59 c -2.128 -16.502 -8.613 -26.078 -20.956 -30.91 C 54.833 45.275 53.271 49.076 52.719 53.032 z" style="stroke: none; stroke-width: 1; stroke-dasharray: none; stroke-linecap: butt; stroke-linejoin: miter; stroke-miterlimit: 10; fill: rgb(0,0,0); fill-rule: nonzero; opacity: 1;" transform=" matrix(1 0 0 1 0 0) " stroke-linecap="round"/>
	<path d="M 51.602 55.032 H 38.398 c -0.517 0 -0.949 -0.394 -0.996 -0.908 c -0.824 -8.981 -6.627 -16.826 -15.524 -20.984 c -0.342 -0.16 -0.565 -0.5 -0.576 -0.877 l -0.004 -0.141 c -0.008 -0.271 -0.016 -0.541 -0.016 -0.813 C 21.282 16.529 31.425 0 45 0 c 13.574 0 23.718 16.529 23.718 31.308 c 0 0.272 -0.008 0.543 -0.016 0.813 l -0.004 0.141 c -0.011 0.378 -0.234 0.718 -0.576 0.877 c -8.896 4.158 -14.7 12.002 -15.524 20.984 C 52.55 54.639 52.118 55.032 51.602 55.032 z M 39.294 53.032 h 11.411 c 1.161 -9.125 7.075 -17.053 16.01 -21.436 c 0.002 -0.096 0.003 -0.192 0.003 -0.289 C 66.718 17.473 57.43 2 45 2 C 32.57 2 23.282 17.473 23.282 31.308 c 0 0.096 0.001 0.192 0.003 0.289 C 32.221 35.979 38.134 43.907 39.294 53.032 z" style="stroke: none; stroke-width: 1; stroke-dasharray: none; stroke-linecap: butt; stroke-linejoin: miter; stroke-miterlimit: 10; fill: rgb(0,0,0); fill-rule: nonzero; opacity: 1;" transform=" matrix(1 0 0 1 0 0) " stroke-linecap="round"/>
</g>
</svg>