<svg xmlns="http://www.w3.org/2000/svg" xmlns:xlink="http://www.w3.org/1999/xlink" version="1.1" width="256" height="256" viewBox="0 0 256 256" xml:space="preserve">
<g style="stroke: none; stroke-width: 0; stroke-dasharray: none; stroke-linecap: butt; stroke-linejoin: miter; stroke-miterlimit: 10; fill: none; fill-rule: nonzero; opacity: 1;" transform="translate(1.4065934065934016 1.4065934065934016) scale(2.81 2.81)">
	<circle cx="41.962" cy="45.002" r="40.962" style="stroke: none; stroke-width: 1; stroke-dasharray: none; stroke-linecap: butt; stroke-linejoin: miter; stroke-miterlimit: 10; fill: rgb(90,170,231); fill-rule: nonzero; opacity: 1;" transform="  matrix(1 0 0 1 0 0) "/>
	<path d="M 39.237 16.042 c 2.959 -3.283 4.812 -7.526 5.293 -11.916 c -0.85 -0.053 -1.704 -0.088 -2.568 -0.088 c -17.447 0 -32.337 10.913 -38.241 26.281 c -0.149 3.871 -0.093 7.666 1.714 11.012 c 2.123 3.932 6.216 6.321 10.099 8.533 c 1.844 1.05 3.783 2.205 4.751 4.093 c 0.647 1.262 0.784 2.718 1.247 4.058 c 1.856 5.372 8.534 8.065 10.021 13.55 c 0.923 3.405 -0.422 6.95 -1.146 10.403 c -0.155 0.736 -0.27 1.48 -0.369 2.226 c 3.774 1.147 7.776 1.769 11.924 1.769 c 0.721 0 1.438 -0.02 2.15 -0.056 c 0.685 -1.199 1.182 -2.548 1.764 -3.808 c 1.144 -2.474 2.748 -4.735 4.705 -6.632 c 2.743 -2.66 6.162 -4.605 8.623 -7.527 c 1.469 -1.744 2.593 -4.015 2.149 -6.251 c -0.615 -3.1 -3.91 -4.879 -6.98 -5.628 c -3.071 -0.749 -6.406 -0.961 -8.993 -2.776 c -1.76 -1.234 -2.992 -4.031 -4.72 -5.309 c -5.874 -4.344 -16.933 0.37 -22.886 -3.865 c -0.75 -0.534 -1.436 -1.206 -1.794 -2.054 c -0.297 -0.705 -0.35 -1.489 -0.336 -2.255 c 0.073 -4.082 3.893 -8.092 7.067 -10.659 c 0.229 -0.185 0.469 -0.366 0.746 -0.467 c 0.981 -0.358 2.032 0.395 2.616 1.26 c 0.585 0.865 0.019 4.696 0.801 5.388 c 0.782 0.692 2.238 0.794 2.706 -0.14 c 0.217 -0.433 1.084 -3.738 1.038 -4.22 c -0.207 -2.195 0.089 -4.463 1.047 -6.449 C 33.32 21.084 36.688 18.87 39.237 16.042 z" style="stroke: none; stroke-width: 1; stroke-dasharray: none; stroke-linecap: butt; stroke-linejoin: miter; stroke-miterlimit: 10; fill: rgb(145,220,90); fill-rule: nonzero; opacity: 1;" transform=" matrix(1 0 0 1 0 0) " stroke-linecap="round"/>
	<path d="M 82.925 45 c 0 -16.387 -9.626 -30.52 -23.528 -37.07 c 0.254 0.386 0.517 0.766 0.76 1.159 c 1.196 1.931 2.284 4.002 2.556 6.257 c 0.686 5.695 -3.906 10.886 -3.809 16.621 c 0.081 4.755 3.847 9.188 8.526 10.037 c 1.708 0.31 3.465 0.188 5.189 0.391 c 1.724 0.204 3.522 0.816 4.551 2.214 c 0.811 1.101 1.026 2.519 1.169 3.879 c 0.575 5.464 0.367 11.005 -0.577 16.417 C 81.047 59.01 82.925 52.226 82.925 45 z" style="stroke: none; stroke-width: 1; stroke-dasharray: none; stroke-linecap: butt; stroke-linejoin: miter; stroke-miterlimit: 10; fill: rgb(145,220,90); fill-rule: nonzero; opacity: 1;" transform=" matrix(1 0 0 1 0 0) " stroke-linecap="round"/>
	<path d="M 41.962 86.963 C 18.824 86.963 0 68.139 0 45 C 0 21.862 18.824 3.038 41.962 3.038 S 83.925 21.862 83.925 45 C 83.925 68.139 65.101 86.963 41.962 86.963 z M 41.962 5.038 C 19.927 5.038 2 22.965 2 45 s 17.927 39.963 39.962 39.963 c 22.036 0 39.962 -17.928 39.962 -39.963 S 63.998 5.038 41.962 5.038 z" style="stroke: none; stroke-width: 1; stroke-dasharray: none; stroke-linecap: butt; stroke-linejoin: miter; stroke-miterlimit: 10; fill: rgb(0,0,0); fill-rule: nonzero; opacity: 1;" transform=" matrix(1 0 0 1 0 0) " stroke-linecap="round"/>
	<path d="M 41.962 86.963 c -4.15 0 -8.26 -0.61 -12.215 -1.813 c -0.468 -0.143 -0.764 -0.603 -0.7 -1.088 c 0.116 -0.886 0.237 -1.617 0.381 -2.301 c 0.155 -0.739 0.338 -1.483 0.522 -2.229 c 0.667 -2.71 1.298 -5.27 0.637 -7.707 c -0.694 -2.563 -2.688 -4.501 -4.798 -6.551 c -2.078 -2.02 -4.226 -4.106 -5.203 -6.935 c -0.195 -0.564 -0.333 -1.135 -0.467 -1.686 c -0.197 -0.811 -0.383 -1.575 -0.725 -2.242 c -0.803 -1.565 -2.448 -2.594 -4.356 -3.681 c -3.645 -2.076 -8.181 -4.661 -10.484 -8.926 C 2.593 38.173 2.574 34.12 2.722 30.28 c 0.004 -0.109 0.026 -0.218 0.065 -0.32 C 8.974 13.857 24.717 3.038 41.962 3.038 c 0.801 0 1.637 0.029 2.63 0.09 c 0.273 0.017 0.527 0.145 0.703 0.354 c 0.176 0.209 0.259 0.481 0.229 0.753 c -0.509 4.644 -2.479 9.075 -5.545 12.477 l 0 0 c -0.866 0.961 -1.823 1.853 -2.748 2.715 c -1.87 1.742 -3.635 3.388 -4.664 5.522 c -0.827 1.714 -1.156 3.762 -0.953 5.92 c 0.073 0.771 -0.906 4.294 -1.139 4.761 c -0.312 0.622 -0.883 1.042 -1.609 1.182 c -0.902 0.175 -1.947 -0.115 -2.654 -0.741 c -0.748 -0.661 -0.78 -2.031 -0.818 -3.618 c -0.016 -0.644 -0.041 -1.721 -0.166 -1.988 c -0.357 -0.526 -0.999 -1.01 -1.428 -0.852 c -0.139 0.051 -0.31 0.184 -0.459 0.305 c -2.471 1.999 -6.626 5.942 -6.696 9.899 c -0.01 0.552 0.01 1.261 0.258 1.85 c 0.237 0.563 0.726 1.11 1.452 1.627 c 2.687 1.911 6.623 1.812 10.791 1.708 c 4.363 -0.109 8.878 -0.222 12.11 2.167 c 0.969 0.716 1.756 1.788 2.517 2.824 c 0.698 0.951 1.421 1.935 2.183 2.47 c 1.764 1.237 3.949 1.664 6.262 2.117 c 0.805 0.157 1.607 0.314 2.394 0.506 c 2.04 0.498 6.874 2.117 7.725 6.405 c 0.443 2.235 -0.396 4.753 -2.365 7.09 c -1.499 1.78 -3.327 3.206 -5.095 4.586 c -1.224 0.954 -2.488 1.94 -3.597 3.015 c -1.881 1.824 -3.393 3.955 -4.494 6.334 c -0.188 0.406 -0.366 0.823 -0.546 1.24 c -0.379 0.881 -0.77 1.791 -1.258 2.645 c -0.169 0.296 -0.477 0.485 -0.817 0.503 C 43.434 86.942 42.701 86.963 41.962 86.963 z M 31.15 83.477 c 4.008 1.125 8.21 1.614 12.353 1.456 c 0.319 -0.619 0.602 -1.276 0.898 -1.965 c 0.187 -0.434 0.373 -0.867 0.568 -1.29 c 1.205 -2.603 2.859 -4.935 4.917 -6.93 c 1.187 -1.149 2.494 -2.17 3.759 -3.156 c 1.765 -1.377 3.432 -2.677 4.796 -4.298 c 0.909 -1.078 2.368 -3.216 1.934 -5.412 c -0.645 -3.246 -4.937 -4.533 -6.237 -4.851 c -0.756 -0.185 -1.529 -0.335 -2.304 -0.486 c -2.416 -0.473 -4.915 -0.962 -7.026 -2.443 c -1.031 -0.723 -1.852 -1.842 -2.646 -2.923 c -0.704 -0.958 -1.368 -1.863 -2.094 -2.4 c -2.679 -1.98 -6.655 -1.882 -10.871 -1.775 c -4.311 0.105 -8.771 0.22 -12 -2.078 c -1.048 -0.746 -1.746 -1.558 -2.135 -2.48 c -0.393 -0.935 -0.428 -1.913 -0.415 -2.662 c 0.081 -4.53 4.089 -8.709 7.438 -11.418 c 0.294 -0.239 0.624 -0.48 1.032 -0.629 c 1.484 -0.543 2.972 0.432 3.788 1.639 c 0.413 0.612 0.456 1.551 0.491 3.031 c 0.017 0.702 0.044 1.86 0.195 2.209 c 0.245 0.187 0.615 0.289 0.898 0.233 c 0.159 -0.031 0.189 -0.091 0.2 -0.113 c 0.19 -0.432 0.915 -3.244 0.934 -3.737 c -0.235 -2.463 0.16 -4.876 1.145 -6.918 c 1.192 -2.472 3.18 -4.325 5.102 -6.116 c 0.894 -0.833 1.818 -1.694 2.626 -2.591 l 0 0 c 2.556 -2.835 4.273 -6.461 4.899 -10.305 c -0.507 -0.021 -0.976 -0.03 -1.431 -0.03 c -16.368 0 -31.316 10.235 -37.248 25.486 c -0.131 3.514 -0.095 7.193 1.6 10.333 c 2.031 3.762 6.113 6.086 9.714 8.138 c 1.69 0.964 4.006 2.283 5.146 4.507 c 0.45 0.877 0.673 1.794 0.889 2.682 c 0.128 0.529 0.25 1.029 0.415 1.506 c 0.821 2.377 2.708 4.211 4.706 6.152 c 2.211 2.148 4.497 4.369 5.335 7.462 c 0.795 2.937 0.073 5.871 -0.626 8.708 c -0.178 0.724 -0.356 1.445 -0.507 2.162 C 31.3 82.578 31.223 83.004 31.15 83.477 z M 39.237 16.042 h 0.01 H 39.237 z" style="stroke: none; stroke-width: 1; stroke-dasharray: none; stroke-linecap: butt; stroke-linejoin: miter; stroke-miterlimit: 10; fill: rgb(0,0,0); fill-rule: nonzero; opacity: 1;" transform=" matrix(1 0 0 1 0 0) " stroke-linecap="round"/>
	<path d="M 77.763 65.904 c -0.111 0 -0.224 -0.019 -0.334 -0.058 c -0.46 -0.163 -0.735 -0.634 -0.651 -1.114 c 0.938 -5.38 1.129 -10.811 0.568 -16.141 c -0.129 -1.216 -0.311 -2.48 -0.98 -3.39 c -0.904 -1.228 -2.6 -1.664 -3.863 -1.813 c -0.701 -0.083 -1.408 -0.109 -2.156 -0.136 c -1.008 -0.037 -2.051 -0.075 -3.095 -0.265 c -5.151 -0.935 -9.257 -5.768 -9.347 -11.004 c -0.049 -2.905 1.002 -5.623 2.018 -8.252 c 1.096 -2.833 2.13 -5.51 1.798 -8.267 c -0.258 -2.134 -1.364 -4.155 -2.414 -5.85 c -0.159 -0.258 -0.328 -0.51 -0.497 -0.763 l -0.248 -0.373 c -0.246 -0.374 -0.213 -0.867 0.081 -1.205 c 0.294 -0.339 0.779 -0.438 1.181 -0.25 C 74.464 13.923 83.925 28.83 83.925 45 c 0 7.131 -1.829 14.183 -5.289 20.391 C 78.455 65.716 78.117 65.904 77.763 65.904 z M 62.119 10.496 c 0.748 1.432 1.38 3.021 1.587 4.729 c 0.392 3.253 -0.783 6.291 -1.919 9.228 c -0.99 2.563 -1.926 4.983 -1.883 7.497 c 0.072 4.244 3.528 8.313 7.704 9.07 c 0.902 0.164 1.83 0.198 2.811 0.234 c 0.755 0.027 1.536 0.056 2.317 0.148 c 2.376 0.281 4.188 1.185 5.239 2.613 c 0.967 1.313 1.208 2.942 1.358 4.366 c 0.357 3.395 0.42 6.827 0.189 10.262 c 1.58 -4.354 2.401 -8.981 2.401 -13.644 C 81.925 30.793 74.256 17.61 62.119 10.496 z" style="stroke: none; stroke-width: 1; stroke-dasharray: none; stroke-linecap: butt; stroke-linejoin: miter; stroke-miterlimit: 10; fill: rgb(0,0,0); fill-rule: nonzero; opacity: 1;" transform=" matrix(1 0 0 1 0 0) " stroke-linecap="round"/>
	<rect x="63.36" y="58.45" rx="0" ry="0" width="5" height="8.34" style="stroke: none; stroke-width: 1; stroke-dasharray: none; stroke-linecap: butt; stroke-linejoin: miter; stroke-miterlimit: 10; fill: rgb(169,176,187); fill-rule: nonzero; opacity: 1;" transform=" matrix(0.7071 -0.7071 0.7071 0.7071 -24.9913 64.9133) "/>
	<path d="M 87.606 84.369 L 87.606 84.369 c -1.858 1.858 -4.87 1.858 -6.728 0 L 65.446 68.936 l 6.728 -6.728 L 87.606 77.64 C 89.465 79.498 89.465 82.511 87.606 84.369 z" style="stroke: none; stroke-width: 1; stroke-dasharray: none; stroke-linecap: butt; stroke-linejoin: miter; stroke-miterlimit: 10; fill: rgb(213,168,137); fill-rule: nonzero; opacity: 1;" transform=" matrix(1 0 0 1 0 0) " stroke-linecap="round"/>
	<path d="M 67.041 68.341 c -0.256 0 -0.512 -0.098 -0.707 -0.293 l -5.896 -5.896 c -0.391 -0.391 -0.391 -1.023 0 -1.414 l 3.537 -3.537 c 0.391 -0.391 1.023 -0.391 1.414 0 l 5.896 5.896 c 0.391 0.391 0.391 1.023 0 1.414 l -3.537 3.537 C 67.553 68.243 67.297 68.341 67.041 68.341 z M 62.559 61.444 l 4.482 4.482 l 2.123 -2.123 l -4.482 -4.482 L 62.559 61.444 z" style="stroke: none; stroke-width: 1; stroke-dasharray: none; stroke-linecap: butt; stroke-linejoin: miter; stroke-miterlimit: 10; fill: rgb(0,0,0); fill-rule: nonzero; opacity: 1;" transform=" matrix(1 0 0 1 0 0) " stroke-linecap="round"/>
	<path d="M 84.242 86.759 c -1.475 0 -2.949 -0.561 -4.071 -1.683 L 64.738 69.644 c -0.391 -0.391 -0.391 -1.023 0 -1.414 l 6.729 -6.729 c 0.391 -0.391 1.023 -0.391 1.414 0 l 15.433 15.433 C 89.401 78.021 90 79.467 90 81.005 s -0.599 2.983 -1.687 4.071 l 0 0 C 87.191 86.198 85.717 86.759 84.242 86.759 z M 66.859 68.937 l 14.726 14.726 c 1.465 1.465 3.85 1.465 5.314 0 c 0.71 -0.71 1.101 -1.654 1.101 -2.657 c 0 -1.004 -0.391 -1.947 -1.101 -2.657 L 72.174 63.622 L 66.859 68.937 z M 87.606 84.369 h 0.01 H 87.606 z" style="stroke: none; stroke-width: 1; stroke-dasharray: none; stroke-linecap: butt; stroke-linejoin: miter; stroke-miterlimit: 10; fill: rgb(0,0,0); fill-rule: nonzero; opacity: 1;" transform=" matrix(1 0 0 1 0 0) " stroke-linecap="round"/>
	<circle cx="50.247" cy="47.007000000000005" r="19.257" style="stroke: none; stroke-width: 1; stroke-dasharray: none; stroke-linecap: butt; stroke-linejoin: miter; stroke-miterlimit: 10; fill: rgb(253,205,86); fill-rule: nonzero; opacity: 1;" transform="  matrix(1 0 0 1 0 0) "/>
	<circle cx="50.251999999999995" cy="47.012" r="12.892" style="stroke: none; stroke-width: 1; stroke-dasharray: none; stroke-linecap: butt; stroke-linejoin: miter; stroke-miterlimit: 10; fill: rgb(244,246,248); fill-rule: nonzero; opacity: 1;" transform="  matrix(1 0 0 1 0 0) "/>
	<path d="M 50.246 67.256 c -5.187 0 -10.374 -1.975 -14.323 -5.923 c -7.898 -7.898 -7.898 -20.75 0 -28.647 c 7.899 -7.899 20.749 -7.898 28.647 0 c 3.826 3.826 5.934 8.913 5.934 14.323 c 0 5.411 -2.107 10.498 -5.934 14.324 C 60.621 65.281 55.434 67.256 50.246 67.256 z M 50.246 28.761 c -4.675 0 -9.35 1.78 -12.909 5.339 c -7.118 7.118 -7.118 18.7 0 25.819 c 7.119 7.118 18.701 7.116 25.819 0 c 3.448 -3.448 5.348 -8.033 5.348 -12.91 c 0 -4.876 -1.899 -9.461 -5.348 -12.909 l 0 0 C 59.597 30.541 54.922 28.761 50.246 28.761 z" style="stroke: none; stroke-width: 1; stroke-dasharray: none; stroke-linecap: butt; stroke-linejoin: miter; stroke-miterlimit: 10; fill: rgb(0,0,0); fill-rule: nonzero; opacity: 1;" transform=" matrix(1 0 0 1 0 0) " stroke-linecap="round"/>
	<path d="M 50.247 60.901 c -3.711 0 -7.2 -1.445 -9.824 -4.069 c -2.624 -2.623 -4.069 -6.112 -4.069 -9.823 c 0 -3.71 1.445 -7.199 4.069 -9.823 c 5.416 -5.417 14.231 -5.417 19.647 0 l 0 0 c 5.416 5.417 5.416 14.23 0 19.646 C 57.446 59.456 53.957 60.901 50.247 60.901 z M 50.247 35.122 c -3.046 0 -6.091 1.159 -8.41 3.478 c -2.246 2.247 -3.483 5.233 -3.483 8.409 c 0 3.177 1.237 6.163 3.483 8.409 s 5.233 3.483 8.41 3.483 c 3.176 0 6.163 -1.237 8.409 -3.483 c 4.637 -4.637 4.637 -12.181 0 -16.818 C 56.338 36.281 53.292 35.122 50.247 35.122 z" style="stroke: none; stroke-width: 1; stroke-dasharray: none; stroke-linecap: butt; stroke-linejoin: miter; stroke-miterlimit: 10; fill: rgb(0,0,0); fill-rule: nonzero; opacity: 1;" transform=" matrix(1 0 0 1 0 0) " stroke-linecap="round"/>
</g>
</svg>