<svg width="16" height="16" viewBox="0 0 16 16" fill="none" xmlns="http://www.w3.org/2000/svg">
<g clip-path="url(#clip0_16_142)">
<path d="M13.6133 6.78665L8.47333 1.53332C8.41136 1.47083 8.33763 1.42124 8.25639 1.38739C8.17515 1.35355 8.08801 1.33612 8 1.33612C7.91199 1.33612 7.82486 1.35355 7.74362 1.38739C7.66238 1.42124 7.58864 1.47083 7.52667 1.53332L2.38667 6.79332C2.26229 6.9187 2.16406 7.06754 2.09769 7.23119C2.03131 7.39485 1.9981 7.57006 2 7.74665V13.3333C1.99948 13.6746 2.12985 14.0031 2.36425 14.2511C2.59865 14.4992 2.91924 14.6479 3.26 14.6667H12.74C13.0808 14.6479 13.4013 14.4992 13.6357 14.2511C13.8702 14.0031 14.0005 13.6746 14 13.3333V7.74665C14.0005 7.38861 13.8619 7.04438 13.6133 6.78665ZM6.66667 13.3333V9.33332H9.33333V13.3333H6.66667ZM12.6667 13.3333H10.6667V8.66665C10.6667 8.48984 10.5964 8.32027 10.4714 8.19525C10.3464 8.07022 10.1768 7.99999 10 7.99999H6C5.82319 7.99999 5.65362 8.07022 5.5286 8.19525C5.40357 8.32027 5.33333 8.48984 5.33333 8.66665V13.3333H3.33333V7.71999L8 2.95332L12.6667 7.74665V13.3333Z" fill="#0F469A"/>
</g>
<defs>
<clipPath id="clip0_16_142">
<rect width="16" height="16" fill="white"/>
</clipPath>
</defs>
</svg>
