<svg xmlns="http://www.w3.org/2000/svg" xmlns:xlink="http://www.w3.org/1999/xlink" version="1.1" width="256" height="256" viewBox="0 0 256 256" xml:space="preserve">
<g style="stroke: none; stroke-width: 0; stroke-dasharray: none; stroke-linecap: butt; stroke-linejoin: miter; stroke-miterlimit: 10; fill: none; fill-rule: nonzero; opacity: 1;" transform="translate(1.4065934065934016 1.4065934065934016) scale(2.81 2.81)">
	<path d="M 70.826 72.705 H 48.26 c -0.809 0 -1.538 -0.487 -1.848 -1.234 c -0.31 -0.748 -0.139 -1.607 0.434 -2.18 l 22.566 -22.566 c 0.572 -0.572 1.43 -0.745 2.18 -0.434 c 0.747 0.31 1.234 1.039 1.234 1.848 v 22.566 C 72.826 71.81 71.931 72.705 70.826 72.705 z M 53.088 68.705 h 15.738 V 52.967 L 53.088 68.705 z" style="stroke: none; stroke-width: 1; stroke-dasharray: none; stroke-linecap: butt; stroke-linejoin: miter; stroke-miterlimit: 10; fill: rgb(0,0,0); fill-rule: nonzero; opacity: 1;" transform=" matrix(1 0 0 1 0 0) " stroke-linecap="round"/>
	<path d="M 88.766 6.021 c -0.749 -0.311 -1.607 -0.139 -2.18 0.434 l -15.47 15.47 c 0 0 0 0 0 0 s 0 0 0 0 L 58.851 34.19 c -0.001 0.001 -0.003 0.002 -0.004 0.003 s -0.002 0.003 -0.003 0.004 L 46.582 46.459 c 0 0 -0.001 0.001 -0.001 0.001 s -0.001 0.001 -0.001 0.001 L 34.315 58.726 c -0.001 0.001 -0.001 0.001 -0.002 0.001 s -0.001 0.001 -0.001 0.002 L 22.048 70.993 c -0.001 0.001 -0.001 0.001 -0.002 0.002 s -0.001 0.001 -0.002 0.002 L 6.576 86.466 c -0.572 0.572 -0.743 1.432 -0.434 2.18 c 0.31 0.747 1.039 1.234 1.848 1.234 H 88 c 1.104 0 2 -0.896 2 -2 V 7.869 C 90 7.06 89.513 6.331 88.766 6.021 z M 86 85.88 H 12.818 l 10.642 -10.642 l 2.808 2.807 c 0.391 0.391 0.902 0.586 1.414 0.586 s 1.024 -0.195 1.414 -0.586 c 0.781 -0.781 0.781 -2.047 0 -2.828 l -2.808 -2.807 l 9.439 -9.44 l 2.808 2.807 c 0.391 0.391 0.902 0.586 1.414 0.586 s 1.024 -0.195 1.414 -0.586 c 0.781 -0.781 0.781 -2.047 0 -2.828 l -2.808 -2.807 l 9.439 -9.439 l 2.807 2.808 c 0.391 0.391 0.902 0.586 1.414 0.586 s 1.023 -0.195 1.414 -0.586 c 0.781 -0.78 0.781 -2.047 0 -2.828 l -2.807 -2.808 l 9.439 -9.439 l 2.808 2.808 c 0.391 0.391 0.902 0.586 1.414 0.586 s 1.023 -0.195 1.414 -0.586 c 0.781 -0.781 0.781 -2.047 0 -2.828 l -2.808 -2.808 l 9.439 -9.439 l 2.808 2.808 c 0.391 0.39 0.902 0.585 1.414 0.585 s 1.023 -0.195 1.414 -0.586 c 0.781 -0.781 0.781 -2.047 0 -2.829 l -2.808 -2.807 L 86 12.698 V 85.88 z" style="stroke: none; stroke-width: 1; stroke-dasharray: none; stroke-linecap: butt; stroke-linejoin: miter; stroke-miterlimit: 10; fill: rgb(0,0,0); fill-rule: nonzero; opacity: 1;" transform=" matrix(1 0 0 1 0 0) " stroke-linecap="round"/>
	<path d="M 64.992 11.982 c 0 -0.53 -0.211 -1.039 -0.586 -1.414 l -9.861 -9.861 c -0.781 -0.781 -2.047 -0.781 -2.828 0 L 44.25 8.173 c -0.001 0.001 -0.002 0.001 -0.002 0.002 s -0.001 0.002 -0.002 0.002 L 6.288 46.135 c -0.068 0.068 -0.124 0.145 -0.181 0.221 c -0.019 0.025 -0.041 0.046 -0.059 0.071 c -0.085 0.125 -0.153 0.26 -0.208 0.401 c -0.004 0.012 -0.013 0.021 -0.017 0.032 L 0.122 62.424 c -0.268 0.731 -0.087 1.552 0.464 2.103 C 0.968 64.908 1.479 65.112 2 65.112 c 0.23 0 0.463 -0.04 0.688 -0.122 l 15.563 -5.702 c 0.009 -0.003 0.015 -0.009 0.024 -0.012 c 0.142 -0.054 0.278 -0.123 0.407 -0.21 c 0.03 -0.02 0.055 -0.046 0.083 -0.068 c 0.072 -0.055 0.146 -0.107 0.212 -0.173 l 37.96 -37.959 c 0 0 0 0 0 0 s 0 0 0 0 l 7.468 -7.468 C 64.781 13.021 64.992 12.512 64.992 11.982 z M 45.663 12.417 l 7.033 7.033 L 17.563 54.582 l -7.033 -7.033 L 45.663 12.417 z M 5.362 59.751 l 3.141 -8.573 l 5.432 5.432 L 5.362 59.751 z M 55.523 16.622 l -7.033 -7.033 l 4.64 -4.64 l 7.033 7.033 L 55.523 16.622 z" style="stroke: none; stroke-width: 1; stroke-dasharray: none; stroke-linecap: butt; stroke-linejoin: miter; stroke-miterlimit: 10; fill: rgb(0,0,0); fill-rule: nonzero; opacity: 1;" transform=" matrix(1 0 0 1 0 0) " stroke-linecap="round"/>
</g>
</svg>