<svg xmlns="http://www.w3.org/2000/svg" xmlns:xlink="http://www.w3.org/1999/xlink" version="1.1" width="256" height="256" viewBox="0 0 256 256" xml:space="preserve">
<g style="stroke: none; stroke-width: 0; stroke-dasharray: none; stroke-linecap: butt; stroke-linejoin: miter; stroke-miterlimit: 10; fill: none; fill-rule: nonzero; opacity: 1;" transform="translate(1.4065934065934016 1.4065934065934016) scale(2.81 2.81)">
	<circle cx="45" cy="45" r="45" style="stroke: none; stroke-width: 1; stroke-dasharray: none; stroke-linecap: butt; stroke-linejoin: miter; stroke-miterlimit: 10; fill: rgb(220,244,219); fill-rule: nonzero; opacity: 1;" transform="  matrix(1 0 0 1 0 0) "/>
	<path d="M 45 76 c -17.093 0 -31 -13.906 -31 -31 c 0 -0.552 0.448 -1 1 -1 s 1 0.448 1 1 c 0 15.99 13.009 29 29 29 c 6.241 0 12.186 -1.951 17.192 -5.644 c 0.444 -0.327 1.07 -0.233 1.398 0.211 s 0.233 1.07 -0.211 1.398 C 58.026 73.913 51.671 76 45 76 z" style="stroke: none; stroke-width: 1; stroke-dasharray: none; stroke-linecap: butt; stroke-linejoin: miter; stroke-miterlimit: 10; fill: rgb(74,88,109); fill-rule: nonzero; opacity: 1;" transform=" matrix(1 0 0 1 0 0) " stroke-linecap="round"/>
	<polygon points="65.57,73.57 58.85,65.56 66.21,66.21 " style="stroke: none; stroke-width: 1; stroke-dasharray: none; stroke-linecap: butt; stroke-linejoin: miter; stroke-miterlimit: 10; fill: rgb(74,88,109); fill-rule: nonzero; opacity: 1;" transform="  matrix(1 0 0 1 0 0) "/>
	<path d="M 75 46 c -0.553 0 -1 -0.448 -1 -1 c 0 -15.991 -13.01 -29 -29 -29 c -6.277 0 -12.251 1.973 -17.274 5.704 c -0.444 0.329 -1.07 0.236 -1.399 -0.207 c -0.33 -0.443 -0.237 -1.07 0.207 -1.399 C 31.904 16.109 38.29 14 45 14 c 17.094 0 31 13.907 31 31 C 76 45.552 75.553 46 75 46 z" style="stroke: none; stroke-width: 1; stroke-dasharray: none; stroke-linecap: butt; stroke-linejoin: miter; stroke-miterlimit: 10; fill: rgb(74,88,109); fill-rule: nonzero; opacity: 1;" transform=" matrix(1 0 0 1 0 0) " stroke-linecap="round"/>
	<polygon points="24.41,16.6 30.98,24.41 23.79,23.79 " style="stroke: none; stroke-width: 1; stroke-dasharray: none; stroke-linecap: butt; stroke-linejoin: miter; stroke-miterlimit: 10; fill: rgb(74,88,109); fill-rule: nonzero; opacity: 1;" transform="  matrix(1 0 0 1 0 0) "/>
	<circle cx="45" cy="45" r="18" style="stroke: none; stroke-width: 1; stroke-dasharray: none; stroke-linecap: butt; stroke-linejoin: miter; stroke-miterlimit: 10; fill: rgb(253,188,75); fill-rule: nonzero; opacity: 1;" transform="  matrix(1 0 0 1 0 0) "/>
	<path d="M 51.417 54.077 c -0.295 0 -0.587 -0.13 -0.784 -0.378 l -6.416 -8.077 C 44.077 45.445 44 45.226 44 45 V 34.634 c 0 -0.552 0.448 -1 1 -1 s 1 0.448 1 1 v 10.017 l 6.199 7.804 c 0.344 0.433 0.271 1.062 -0.161 1.405 C 51.854 54.006 51.635 54.077 51.417 54.077 z" style="stroke: none; stroke-width: 1; stroke-dasharray: none; stroke-linecap: butt; stroke-linejoin: miter; stroke-miterlimit: 10; fill: rgb(74,88,109); fill-rule: nonzero; opacity: 1;" transform=" matrix(1 0 0 1 0 0) " stroke-linecap="round"/>
</g>
</svg>