<svg xmlns="http://www.w3.org/2000/svg"  viewBox="0 0 48 48" width="48px" height="48px" baseProfile="basic"><linearGradient id="KBi72ej_Th0LdA7aXNh4ga" x1="-8.662" x2="48.403" y1="-2616.142" y2="-2649.089" gradientTransform="matrix(1 0 0 -1 0 -2596)" gradientUnits="userSpaceOnUse"><stop offset="0" stop-color="#262626" stop-opacity="0"/><stop offset="1" stop-color="#262626" stop-opacity=".8"/></linearGradient><path fill="url(#KBi72ej_Th0LdA7aXNh4ga)" d="M43,36H10c-2.761,0-5,2.239-5,5v1h33c2.761,0,5-2.239,5-5V36z"/><linearGradient id="KBi72ej_Th0LdA7aXNh4gb" x1="-3.81" x2="59.044" y1="40.224" y2="3.936" gradientUnits="userSpaceOnUse"><stop offset="0" stop-color="#262626" stop-opacity="0"/><stop offset="1" stop-color="#262626" stop-opacity=".8"/></linearGradient><path fill="url(#KBi72ej_Th0LdA7aXNh4gb)" d="M39,36H9c0,0,0-8,0-13v-2c0-8.284,6.716-15,15-15h0c8.284,0,15,6.716,15,15v2	C39,28,39,36,39,36z"/><linearGradient id="KBi72ej_Th0LdA7aXNh4gc" x1="24" x2="24" y1="53.763" y2="38.982" gradientUnits="userSpaceOnUse"><stop offset="0" stop-color="#262626" stop-opacity="0"/><stop offset="1" stop-color="#262626" stop-opacity=".8"/></linearGradient><path fill="url(#KBi72ej_Th0LdA7aXNh4gc)" d="M30,42c0,3.315-2.685,6-6,6s-6-2.685-6-6H30z"/><linearGradient id="KBi72ej_Th0LdA7aXNh4gd" x1="18.222" x2="27.722" y1="-1.428" y2="9.894" gradientUnits="userSpaceOnUse"><stop offset="0" stop-color="#262626" stop-opacity="0"/><stop offset="1" stop-color="#262626" stop-opacity=".8"/></linearGradient><path fill="url(#KBi72ej_Th0LdA7aXNh4gd)" d="M29,6c0,0.28-0.02,0.56-0.08,0.83C27.38,6.29,25.72,6,24,6s-3.38,0.29-4.92,0.83	C19.02,6.56,19,6.28,19,6c0-2.76,2.24-5,5-5S29,3.24,29,6z"/></svg>