<svg width="16" height="16" viewBox="0 0 16 16" fill="none" xmlns="http://www.w3.org/2000/svg">
<g clip-path="url(#clip0_16_152)">
<path d="M7.99999 7.33333C8.52741 7.33333 9.04298 7.17694 9.48151 6.88392C9.92005 6.5909 10.2618 6.17443 10.4637 5.68716C10.6655 5.19989 10.7183 4.66371 10.6154 4.14643C10.5125 3.62914 10.2586 3.15399 9.88561 2.78105C9.51267 2.40811 9.03752 2.15413 8.52024 2.05124C8.00295 1.94835 7.46677 2.00116 6.97951 2.20299C6.49224 2.40482 6.07576 2.74662 5.78274 3.18515C5.48973 3.62368 5.33333 4.13925 5.33333 4.66667C5.33333 5.37391 5.61428 6.05219 6.11438 6.55229C6.61447 7.05238 7.29275 7.33333 7.99999 7.33333ZM7.99999 3.33333C8.2637 3.33333 8.52149 3.41153 8.74075 3.55804C8.96002 3.70455 9.13092 3.91279 9.23183 4.15642C9.33275 4.40006 9.35916 4.66815 9.30771 4.92679C9.25626 5.18543 9.12927 5.42301 8.9428 5.60948C8.75633 5.79595 8.51876 5.92293 8.26012 5.97438C8.00147 6.02583 7.73339 5.99942 7.48975 5.89851C7.24612 5.79759 7.03788 5.62669 6.89137 5.40743C6.74486 5.18816 6.66666 4.93038 6.66666 4.66667C6.66666 4.31305 6.80714 3.97391 7.05719 3.72386C7.30723 3.47381 7.64637 3.33333 7.99999 3.33333Z" fill="#343333"/>
<path d="M7.99999 8.66666C6.76232 8.66666 5.57533 9.15832 4.70016 10.0335C3.82499 10.9087 3.33333 12.0956 3.33333 13.3333C3.33333 13.5101 3.40357 13.6797 3.52859 13.8047C3.65361 13.9298 3.82318 14 3.99999 14C4.17681 14 4.34637 13.9298 4.4714 13.8047C4.59642 13.6797 4.66666 13.5101 4.66666 13.3333C4.66666 12.4493 5.01785 11.6014 5.64297 10.9763C6.26809 10.3512 7.11594 9.99999 7.99999 9.99999C8.88405 9.99999 9.7319 10.3512 10.357 10.9763C10.9821 11.6014 11.3333 12.4493 11.3333 13.3333C11.3333 13.5101 11.4036 13.6797 11.5286 13.8047C11.6536 13.9298 11.8232 14 12 14C12.1768 14 12.3464 13.9298 12.4714 13.8047C12.5964 13.6797 12.6667 13.5101 12.6667 13.3333C12.6667 12.0956 12.175 10.9087 11.2998 10.0335C10.4247 9.15832 9.23767 8.66666 7.99999 8.66666Z" fill="#343333"/>
</g>
<defs>
<clipPath id="clip0_16_152">
<rect width="16" height="16" fill="white"/>
</clipPath>
</defs>
</svg>
