<svg xmlns="http://www.w3.org/2000/svg" xmlns:xlink="http://www.w3.org/1999/xlink" version="1.1" width="256" height="256" viewBox="0 0 256 256" xml:space="preserve">
<g style="stroke: none; stroke-width: 0; stroke-dasharray: none; stroke-linecap: butt; stroke-linejoin: miter; stroke-miterlimit: 10; fill: none; fill-rule: nonzero; opacity: 1;" transform="translate(1.4065934065934016 1.4065934065934016) scale(2.81 2.81)">
	<path d="M 81.732 89 H 61.593 c -4.014 0 -7.268 -3.254 -7.268 -7.268 V 61.528 c 0 -4.014 3.254 -7.268 7.268 -7.268 h 20.139 c 4.014 0 7.268 3.254 7.268 7.268 v 20.205 C 89 85.746 85.746 89 81.732 89 z" style="stroke: none; stroke-width: 1; stroke-dasharray: none; stroke-linecap: butt; stroke-linejoin: miter; stroke-miterlimit: 10; fill: rgb(63,234,221); fill-rule: nonzero; opacity: 1;" transform=" matrix(1 0 0 1 0 0) " stroke-linecap="round"/>
	<path d="M 40.188 50.673 H 11.392 C 5.653 50.673 1 46.02 1 40.281 V 11.392 C 1 5.653 5.653 1 11.392 1 h 28.796 c 5.739 0 10.392 4.653 10.392 10.392 v 28.889 C 50.579 46.02 45.927 50.673 40.188 50.673 z" style="stroke: none; stroke-width: 1; stroke-dasharray: none; stroke-linecap: butt; stroke-linejoin: miter; stroke-miterlimit: 10; fill: rgb(2,192,252); fill-rule: nonzero; opacity: 1;" transform=" matrix(1 0 0 1 0 0) " stroke-linecap="round"/>
	<path d="M 73.178 81.649 c -0.553 0 -1 -0.447 -1 -1 V 67.895 c 0 -2.362 -1.917 -4.284 -4.273 -4.284 s -4.273 1.922 -4.273 4.284 v 12.755 c 0 0.553 -0.447 1 -1 1 s -1 -0.447 -1 -1 V 67.895 c 0 -3.465 2.814 -6.284 6.273 -6.284 s 6.273 2.819 6.273 6.284 v 12.755 C 74.178 81.202 73.73 81.649 73.178 81.649 z" style="stroke: none; stroke-width: 1; stroke-dasharray: none; stroke-linecap: butt; stroke-linejoin: miter; stroke-miterlimit: 10; fill: rgb(0,0,0); fill-rule: nonzero; opacity: 1;" transform=" matrix(1 0 0 1 0 0) " stroke-linecap="round"/>
	<path d="M 73.178 73.418 H 62.631 c -0.553 0 -1 -0.447 -1 -1 s 0.447 -1 1 -1 h 10.547 c 0.553 0 1 0.447 1 1 S 73.73 73.418 73.178 73.418 z" style="stroke: none; stroke-width: 1; stroke-dasharray: none; stroke-linecap: butt; stroke-linejoin: miter; stroke-miterlimit: 10; fill: rgb(0,0,0); fill-rule: nonzero; opacity: 1;" transform=" matrix(1 0 0 1 0 0) " stroke-linecap="round"/>
	<path d="M 80.694 81.649 c -0.553 0 -1 -0.447 -1 -1 V 62.61 c 0 -0.553 0.447 -1 1 -1 s 1 0.447 1 1 v 18.039 C 81.694 81.202 81.247 81.649 80.694 81.649 z" style="stroke: none; stroke-width: 1; stroke-dasharray: none; stroke-linecap: butt; stroke-linejoin: miter; stroke-miterlimit: 10; fill: rgb(0,0,0); fill-rule: nonzero; opacity: 1;" transform=" matrix(1 0 0 1 0 0) " stroke-linecap="round"/>
	<path d="M 81.732 90 h -20.14 c -4.559 0 -8.268 -3.709 -8.268 -8.268 V 61.527 c 0 -4.559 3.709 -8.268 8.268 -8.268 h 20.14 c 4.559 0 8.268 3.709 8.268 8.268 v 20.205 C 90 86.291 86.291 90 81.732 90 z M 61.593 55.26 c -3.456 0 -6.268 2.812 -6.268 6.268 v 20.205 c 0 3.456 2.812 6.268 6.268 6.268 h 20.14 C 85.188 88 88 85.188 88 81.732 V 61.527 c 0 -3.456 -2.812 -6.268 -6.268 -6.268 H 61.593 z" style="stroke: none; stroke-width: 1; stroke-dasharray: none; stroke-linecap: butt; stroke-linejoin: miter; stroke-miterlimit: 10; fill: rgb(0,0,0); fill-rule: nonzero; opacity: 1;" transform=" matrix(1 0 0 1 0 0) " stroke-linecap="round"/>
	<path d="M 40.188 51.673 H 11.392 C 5.11 51.673 0 46.562 0 40.281 v -28.89 C 0 5.11 5.11 0 11.392 0 h 28.796 c 6.281 0 11.392 5.11 11.392 11.392 v 28.89 C 51.579 46.562 46.469 51.673 40.188 51.673 z M 11.392 2 C 6.213 2 2 6.213 2 11.392 v 28.89 c 0 5.179 4.213 9.392 9.392 9.392 h 28.796 c 5.179 0 9.392 -4.213 9.392 -9.392 v -28.89 C 49.579 6.213 45.366 2 40.188 2 H 11.392 z" style="stroke: none; stroke-width: 1; stroke-dasharray: none; stroke-linecap: butt; stroke-linejoin: miter; stroke-miterlimit: 10; fill: rgb(0,0,0); fill-rule: nonzero; opacity: 1;" transform=" matrix(1 0 0 1 0 0) " stroke-linecap="round"/>
	<path d="M 13.633 62.483 c -0.552 0 -1 -0.447 -1 -1 v -2.872 c 0 -0.553 0.448 -1 1 -1 s 1 0.447 1 1 v 2.872 C 14.633 62.036 14.186 62.483 13.633 62.483 z" style="stroke: none; stroke-width: 1; stroke-dasharray: none; stroke-linecap: butt; stroke-linejoin: miter; stroke-miterlimit: 10; fill: rgb(0,0,0); fill-rule: nonzero; opacity: 1;" transform=" matrix(1 0 0 1 0 0) " stroke-linecap="round"/>
	<path d="M 45.235 72.63 H 27.872 c -1.7 0 -3.083 -1.385 -3.083 -3.086 V 58.611 c 0 -0.553 0.448 -1 1 -1 s 1 0.447 1 1 v 10.933 c 0 0.599 0.486 1.086 1.083 1.086 h 17.363 c 0.552 0 1 0.447 1 1 S 45.788 72.63 45.235 72.63 z" style="stroke: none; stroke-width: 1; stroke-dasharray: none; stroke-linecap: butt; stroke-linejoin: miter; stroke-miterlimit: 10; fill: rgb(0,0,0); fill-rule: nonzero; opacity: 1;" transform=" matrix(1 0 0 1 0 0) " stroke-linecap="round"/>
	<path d="M 45.235 90 H 3.083 C 1.383 90 0 88.615 0 86.914 V 58.611 c 0 -0.553 0.448 -1 1 -1 s 1 0.447 1 1 v 28.303 C 2 87.513 2.486 88 3.083 88 h 42.153 c 0.552 0 1 0.447 1 1 S 45.788 90 45.235 90 z" style="stroke: none; stroke-width: 1; stroke-dasharray: none; stroke-linecap: butt; stroke-linejoin: miter; stroke-miterlimit: 10; fill: rgb(0,0,0); fill-rule: nonzero; opacity: 1;" transform=" matrix(1 0 0 1 0 0) " stroke-linecap="round"/>
	<path d="M 25.79 90 c -0.552 0 -1 -0.447 -1 -1 v -6.933 c 0 -0.6 -0.485 -1.087 -1.082 -1.087 h -7.992 c -1.7 0 -3.083 -1.385 -3.083 -3.086 v -8.646 c 0 -0.553 0.448 -1 1 -1 s 1 0.447 1 1 v 8.646 c 0 0.599 0.486 1.086 1.083 1.086 h 7.992 c 1.699 0 3.082 1.385 3.082 3.087 V 89 C 26.79 89.553 26.342 90 25.79 90 z" style="stroke: none; stroke-width: 1; stroke-dasharray: none; stroke-linecap: butt; stroke-linejoin: miter; stroke-miterlimit: 10; fill: rgb(0,0,0); fill-rule: nonzero; opacity: 1;" transform=" matrix(1 0 0 1 0 0) " stroke-linecap="round"/>
	<path d="M 61.535 14.657 h -2.867 c -0.553 0 -1 -0.448 -1 -1 s 0.447 -1 1 -1 h 2.867 c 0.553 0 1 0.448 1 1 S 62.088 14.657 61.535 14.657 z" style="stroke: none; stroke-width: 1; stroke-dasharray: none; stroke-linecap: butt; stroke-linejoin: miter; stroke-miterlimit: 10; fill: rgb(0,0,0); fill-rule: nonzero; opacity: 1;" transform=" matrix(1 0 0 1 0 0) " stroke-linecap="round"/>
	<path d="M 71.662 36.578 c -0.553 0 -1 -0.448 -1 -1 v -7.655 c 0 -0.599 -0.485 -1.086 -1.082 -1.086 H 58.668 c -0.553 0 -1 -0.448 -1 -1 s 0.447 -1 1 -1 H 69.58 c 1.699 0 3.082 1.385 3.082 3.086 v 7.655 C 72.662 36.13 72.215 36.578 71.662 36.578 z" style="stroke: none; stroke-width: 1; stroke-dasharray: none; stroke-linecap: butt; stroke-linejoin: miter; stroke-miterlimit: 10; fill: rgb(0,0,0); fill-rule: nonzero; opacity: 1;" transform=" matrix(1 0 0 1 0 0) " stroke-linecap="round"/>
	<path d="M 71.662 46.319 c -0.553 0 -1 -0.448 -1 -1 V 42.88 c 0 -0.552 0.447 -1 1 -1 s 1 0.448 1 1 v 2.438 C 72.662 45.871 72.215 46.319 71.662 46.319 z" style="stroke: none; stroke-width: 1; stroke-dasharray: none; stroke-linecap: butt; stroke-linejoin: miter; stroke-miterlimit: 10; fill: rgb(0,0,0); fill-rule: nonzero; opacity: 1;" transform=" matrix(1 0 0 1 0 0) " stroke-linecap="round"/>
	<path d="M 89 46.319 c -0.553 0 -1 -0.448 -1 -1 V 3.086 C 88 2.487 87.515 2 86.918 2 h -28.25 c -0.553 0 -1 -0.448 -1 -1 s 0.447 -1 1 -1 h 28.25 C 88.617 0 90 1.385 90 3.086 v 42.232 C 90 45.871 89.553 46.319 89 46.319 z" style="stroke: none; stroke-width: 1; stroke-dasharray: none; stroke-linecap: butt; stroke-linejoin: miter; stroke-miterlimit: 10; fill: rgb(0,0,0); fill-rule: nonzero; opacity: 1;" transform=" matrix(1 0 0 1 0 0) " stroke-linecap="round"/>
	<path d="M 89 26.836 h -6.92 c -1.699 0 -3.082 -1.385 -3.082 -3.086 v -8.006 c 0 -0.599 -0.485 -1.086 -1.083 -1.086 h -8.628 c -0.553 0 -1 -0.448 -1 -1 s 0.447 -1 1 -1 h 8.628 c 1.7 0 3.083 1.385 3.083 3.086 v 8.006 c 0 0.599 0.485 1.086 1.082 1.086 H 89 c 0.553 0 1 0.448 1 1 S 89.553 26.836 89 26.836 z" style="stroke: none; stroke-width: 1; stroke-dasharray: none; stroke-linecap: butt; stroke-linejoin: miter; stroke-miterlimit: 10; fill: rgb(0,0,0); fill-rule: nonzero; opacity: 1;" transform=" matrix(1 0 0 1 0 0) " stroke-linecap="round"/>
	<path d="M 9.58 36.546 c -0.552 0 -1 -0.448 -1 -1 v -21.95 c 0 -0.552 0.448 -1 1 -1 s 1 0.448 1 1 v 21.95 C 10.58 36.099 10.132 36.546 9.58 36.546 z" style="stroke: none; stroke-width: 1; stroke-dasharray: none; stroke-linecap: butt; stroke-linejoin: miter; stroke-miterlimit: 10; fill: rgb(0,0,0); fill-rule: nonzero; opacity: 1;" transform=" matrix(1 0 0 1 0 0) " stroke-linecap="round"/>
	<path d="M 21.025 18.78 C 14.841 18.78 8.58 17 8.58 13.597 s 6.261 -5.184 12.446 -5.184 c 6.185 0 12.446 1.781 12.446 5.184 S 27.21 18.78 21.025 18.78 z M 21.025 10.413 c -6.376 0 -10.446 1.886 -10.446 3.184 s 4.069 3.184 10.446 3.184 c 6.377 0 10.446 -1.886 10.446 -3.184 S 27.402 10.413 21.025 10.413 z" style="stroke: none; stroke-width: 1; stroke-dasharray: none; stroke-linecap: butt; stroke-linejoin: miter; stroke-miterlimit: 10; fill: rgb(0,0,0); fill-rule: nonzero; opacity: 1;" transform=" matrix(1 0 0 1 0 0) " stroke-linecap="round"/>
	<path d="M 32.472 18.061 c -0.552 0 -1 -0.448 -1 -1 v -3.464 c 0 -0.552 0.448 -1 1 -1 s 1 0.448 1 1 v 3.464 C 33.472 17.613 33.024 18.061 32.472 18.061 z" style="stroke: none; stroke-width: 1; stroke-dasharray: none; stroke-linecap: butt; stroke-linejoin: miter; stroke-miterlimit: 10; fill: rgb(0,0,0); fill-rule: nonzero; opacity: 1;" transform=" matrix(1 0 0 1 0 0) " stroke-linecap="round"/>
	<path d="M 40.583 43.259 c -0.552 0 -1 -0.448 -1 -1 s 0.448 -1 1 -1 c 0.494 0 0.724 -0.339 0.801 -0.484 c 0.076 -0.146 0.223 -0.529 -0.059 -0.935 l -5.871 -8.457 c -0.116 -0.167 -0.179 -0.367 -0.179 -0.57 v -7.829 c 0 -0.552 0.448 -1 1 -1 s 1 0.448 1 1 V 30.5 l 5.692 8.2 c 0.619 0.891 0.69 2.042 0.188 3.002 C 42.653 42.663 41.667 43.259 40.583 43.259 z" style="stroke: none; stroke-width: 1; stroke-dasharray: none; stroke-linecap: butt; stroke-linejoin: miter; stroke-miterlimit: 10; fill: rgb(0,0,0); fill-rule: nonzero; opacity: 1;" transform=" matrix(1 0 0 1 0 0) " stroke-linecap="round"/>
	<path d="M 33.365 43.259 h -7.219 c -1.084 0 -2.07 -0.597 -2.573 -1.558 c -0.502 -0.96 -0.431 -2.111 0.188 -3.002 l 5.692 -8.2 v -9.559 c 0 -0.552 0.448 -1 1 -1 h 5.822 c 0.552 0 1 0.448 1 1 v 2.042 c 0 0.552 -0.448 1 -1 1 s -1 -0.448 -1 -1 v -1.042 h -3.822 v 8.872 c 0 0.204 -0.062 0.403 -0.179 0.57 l -5.871 8.458 c -0.282 0.406 -0.135 0.789 -0.058 0.935 c 0.076 0.146 0.307 0.484 0.8 0.484 h 7.219 c 0.552 0 1 0.448 1 1 S 33.917 43.259 33.365 43.259 z" style="stroke: none; stroke-width: 1; stroke-dasharray: none; stroke-linecap: butt; stroke-linejoin: miter; stroke-miterlimit: 10; fill: rgb(0,0,0); fill-rule: nonzero; opacity: 1;" transform=" matrix(1 0 0 1 0 0) " stroke-linecap="round"/>
	<path d="M 37.906 21.941 h -9.083 c -0.552 0 -1 -0.448 -1 -1 s 0.448 -1 1 -1 h 9.083 c 0.552 0 1 0.448 1 1 S 38.458 21.941 37.906 21.941 z" style="stroke: none; stroke-width: 1; stroke-dasharray: none; stroke-linecap: butt; stroke-linejoin: miter; stroke-miterlimit: 10; fill: rgb(0,0,0); fill-rule: nonzero; opacity: 1;" transform=" matrix(1 0 0 1 0 0) " stroke-linecap="round"/>
	<path d="M 37.906 21.941 h -9.083 c -0.552 0 -1 -0.448 -1 -1 s 0.448 -1 1 -1 h 9.083 c 0.552 0 1 0.448 1 1 S 38.458 21.941 37.906 21.941 z" style="stroke: none; stroke-width: 1; stroke-dasharray: none; stroke-linecap: butt; stroke-linejoin: miter; stroke-miterlimit: 10; fill: rgb(0,0,0); fill-rule: nonzero; opacity: 1;" transform=" matrix(1 0 0 1 0 0) " stroke-linecap="round"/>
	<path d="M 21.025 40.73 c -0.87 0 -1.736 -0.035 -2.574 -0.103 c -4.554 -0.369 -9.872 -1.921 -9.872 -5.081 c 0 -0.552 0.448 -1 1 -1 s 1 0.448 1 1 c 0 1.021 2.792 2.662 8.034 3.087 c 1.867 0.153 3.879 0.123 5.719 -0.088 c 0.547 -0.066 1.044 0.331 1.107 0.88 c 0.062 0.549 -0.332 1.044 -0.88 1.107 C 23.417 40.664 22.228 40.73 21.025 40.73 z" style="stroke: none; stroke-width: 1; stroke-dasharray: none; stroke-linecap: butt; stroke-linejoin: miter; stroke-miterlimit: 10; fill: rgb(0,0,0); fill-rule: nonzero; opacity: 1;" transform=" matrix(1 0 0 1 0 0) " stroke-linecap="round"/>
	<path d="M 21.025 33.414 c -6.185 0 -12.446 -1.781 -12.446 -5.184 c 0 -0.552 0.448 -1 1 -1 s 1 0.448 1 1 c 0 1.298 4.069 3.184 10.446 3.184 c 3.606 0 6.956 -0.634 8.96 -1.697 c 0.487 -0.26 1.093 -0.074 1.352 0.415 c 0.259 0.488 0.073 1.093 -0.415 1.352 C 28.643 32.692 24.943 33.414 21.025 33.414 z" style="stroke: none; stroke-width: 1; stroke-dasharray: none; stroke-linecap: butt; stroke-linejoin: miter; stroke-miterlimit: 10; fill: rgb(0,0,0); fill-rule: nonzero; opacity: 1;" transform=" matrix(1 0 0 1 0 0) " stroke-linecap="round"/>
	<path d="M 21.025 26.097 c -6.185 0 -12.446 -1.78 -12.446 -5.183 c 0 -0.552 0.448 -1 1 -1 s 1 0.448 1 1 c 0 1.298 4.069 3.183 10.446 3.183 c 3.606 0 6.956 -0.634 8.96 -1.697 c 0.487 -0.26 1.093 -0.074 1.352 0.415 c 0.259 0.488 0.073 1.093 -0.415 1.352 C 28.643 25.375 24.943 26.097 21.025 26.097 z" style="stroke: none; stroke-width: 1; stroke-dasharray: none; stroke-linecap: butt; stroke-linejoin: miter; stroke-miterlimit: 10; fill: rgb(0,0,0); fill-rule: nonzero; opacity: 1;" transform=" matrix(1 0 0 1 0 0) " stroke-linecap="round"/>
</g>
</svg>